<?xml version="1.0" encoding="UTF-8"?>
<svg xmlns="http://www.w3.org/2000/svg" version="1.1" viewBox="0 0 841.89 595.28">
  <!-- Generator: Adobe Illustrator 29.7.1, SVG Export Plug-In . SVG Version: 2.1.1 Build 8)  -->
  <defs>
    <style>
      .st0 {
        font-family: PalaceScriptMT, 'Palace Script MT';
        font-size: 96.16px;
        stroke: #020202;
        stroke-miterlimit: 10;
      }

      .st0, .st1 {
        fill: #231f20;
      }

      .st2 {
        isolation: isolate;
      }

      .st3 {
        mix-blend-mode: multiply;
      }

      .st4 {
        fill: #060707;
      }
    </style>
  </defs>
  <g class="st2">
    <g id="Layer_1">
      <g class="st3">
        <path class="st4" d="M110.3,269.68c0,1.57-1.09,3.2-3.26,4.89,1.98,2.92,2.97,5.61,2.97,8.07,0,.6-.18.91-.54.91-.29,0-.43-.4-.43-1.19,0-2.41-.85-4.86-2.53-7.35-3.5,2.61-8.26,4.86-14.28,6.75-6.02,1.9-11.36,2.84-16.02,2.84-.65,0-1.22-.02-1.7-.07-3.86,5.38-5.79,10.57-5.79,15.57,0,3.4,1.06,6.09,3.17,8.07,2.11,1.98,4.99,2.97,8.63,2.97,6.88,0,13.01-3.29,18.39-9.88,3.26-3.98,4.89-7.76,4.89-11.33,0-1.88-.57-3.38-1.7-4.49-1.13-1.11-2.64-1.67-4.52-1.67-3.01,0-6.25,1.59-9.7,4.76-3.46,3.17-5.19,6.14-5.19,8.89,0,.24.07.36.22.36.12-.02.22-.07.29-.14.65-.58,1.24-.87,1.79-.87,1.22,0,1.83.66,1.83,1.99,0,1.79-.87,2.68-2.61,2.68-1.59,0-2.39-.96-2.39-2.9,0-3.45,1.75-6.87,5.25-10.26,3.5-3.39,7.05-5.09,10.64-5.09,4.63,0,6.95,2.55,6.95,7.64s-2.52,10.06-7.55,14.39c-5.03,4.33-10.61,6.5-16.75,6.5-4.27,0-7.86-1.44-10.77-4.31-2.91-2.87-4.36-6.42-4.36-10.64s1.44-8.31,4.31-12.64c-10.45-1.93-15.68-6.06-15.68-12.38,0-3.77,1.94-6.92,5.83-9.45,3.89-2.53,8.73-3.8,14.52-3.8,8.09,0,16.26,2.69,24.51,8.07,1.42-.29,2.88-.43,4.38-.43,4.8,0,7.21,1.18,7.21,3.55ZM97.7,266.71c-7.34-4.25-15.15-6.37-23.43-6.37-5.12,0-9.59,1.21-13.41,3.62-3.83,2.41-5.74,5.24-5.74,8.47,0,5.77,4.9,9.5,14.7,11.19,6.08-8.47,15.38-14.11,27.88-16.91ZM106.2,274.5c-1.86-2.68-4.36-5.06-7.49-7.13-4.51,1.23-8.92,3.35-13.21,6.35-4.3,3.01-7.82,6.43-10.57,10.26,5.04,0,10.63-.92,16.75-2.77s10.96-4.08,14.54-6.72ZM109.72,269.68c0-1.98-1.93-2.97-5.79-2.97-1.21,0-2.64.17-4.31.51,2.87,1.98,5.25,4.28,7.13,6.92,1.98-1.69,2.97-3.17,2.97-4.45Z"/>
        <path class="st4" d="M129.35,298.48c0,.39-.71,1.29-2.14,2.71-2.13,2.12-4.08,3.18-5.87,3.18-.75,0-1.41-.14-1.99-.43-3.19,4.51-6.18,6.77-8.99,6.77-1.45,0-2.69-.6-3.71-1.79-1.03-1.19-1.54-2.62-1.54-4.29,0-3.72,2.44-7.3,7.31-10.75,3.43-2.44,6.25-3.66,8.47-3.66,2.08,0,3.11,1.11,3.11,3.33,0,2.78-1.46,6.12-4.38,10.03.48.29,1.03.43,1.63.43,1.09,0,2.35-.5,3.81-1.52,1.45-1.01,2.64-2.23,3.56-3.65.27-.34.46-.51.58-.51.1,0,.15.05.15.14ZM123.47,293.61c0-1.96-.88-2.93-2.64-2.93-2.2,0-4.88,2.1-8.04,6.3-3.16,4.2-4.74,7.74-4.74,10.61,0,1.67.8,2.5,2.39,2.5,2.61,0,5.45-2.15,8.54-6.44-.7-.77-1.05-1.57-1.05-2.39,0-1.18.47-2.4,1.41-3.66.94-1.25,1.86-1.88,2.75-1.88.39,0,.65.24.8.72.39-.84.58-1.79.58-2.82Z"/>
        <path class="st4" d="M156.06,298.52c0,.51-1.76,2.85-5.29,7.03-2.85,3.43-5.1,5.15-6.74,5.15-1.11,0-2.02-.42-2.72-1.25-.7-.83-1.05-1.88-1.05-3.13s.39-2.72,1.16-4.24c-2.41,3.38-4.26,5.66-5.54,6.84s-2.52,1.77-3.73,1.77c-1.28,0-2.35-.55-3.22-1.65-.87-1.1-1.3-2.48-1.3-4.15,0-4.63,3.27-8.74,9.81-12.31,2.87-1.59,5.19-2.39,6.95-2.39,1.5,0,2.24.72,2.24,2.17,0,.41-.1.95-.29,1.63l1.85-3.51c.72.17,1.36.25,1.92.25.65,0,1.5-.08,2.53-.25l-6.41,10.61c-2.22,3.72-3.33,6.17-3.33,7.35s.47,1.7,1.41,1.7,2.51-1.11,4.64-3.32c2.13-2.21,4.29-4.94,6.49-8.18.14-.24.28-.36.4-.36.14,0,.22.07.22.22ZM146.09,292.53c0-1.18-.54-1.77-1.63-1.77-2.22,0-5.14,2.17-8.74,6.52-3.61,4.34-5.41,7.86-5.41,10.54,0,1.57.7,2.35,2.1,2.35,1.67,0,4.55-2.76,8.65-8.29,3.35-4.54,5.03-7.65,5.03-9.34Z"/>
        <path class="st4" d="M169.54,284.47c0,.96-1.51,2.88-4.53,5.74-.14.75-.22,1.4-.22,1.96,0,1.4.64,3.62,1.92,6.66.65,1.52.98,2.8.98,3.84,0,2.17-1.06,4.06-3.17,5.65-2.11,1.59-4.62,2.39-7.51,2.39-1.64,0-2.95-.46-3.93-1.39-.98-.93-1.47-2.18-1.47-3.75,0-1.81.65-3.57,1.94-5.29,1.29-1.71,2.62-2.57,4-2.57.24,0,.46.05.65.15l2.9-3.55c.87-1.04,2.03-2.47,3.48-4.31.41-1.69,1.04-3.14,1.88-4.34.84-1.21,1.68-1.81,2.5-1.81.39,0,.58.21.58.63ZM164.51,298.75c0-.72-.02-1.44-.07-2.15-.05-.71-.07-1.73-.07-3.06,0-1.09.05-1.99.14-2.72-1.35,1.71-3.31,4.13-5.87,7.24.46.39.69.86.69,1.41,0,1.43-1.17,2.39-3.51,2.9-.94.22-1.76.73-2.44,1.54-.69.81-1.03,1.66-1.03,2.55,0,.97.35,1.77,1.05,2.43.7.65,1.57.98,2.61.98,2.03,0,3.95-1.18,5.77-3.53,1.82-2.35,2.73-4.88,2.73-7.58Z"/>
        <path class="st4" d="M186.29,290.21l-.29.54h-4.74l-8.07,13.79c-.99,1.67-1.48,2.99-1.48,3.98,0,1.09.57,1.63,1.7,1.63,2.2,0,5.91-3.83,11.13-11.5.17-.24.31-.36.44-.36.15,0,.22.07.22.22-.02.07-.14.27-.36.58l-1.56,2.14c-4.54,6.31-7.96,9.46-10.26,9.46-1.14,0-2.08-.41-2.85-1.23-.76-.82-1.14-1.85-1.14-3.08,0-1.45.64-3.26,1.92-5.43l6.08-10.21h-3.69l.36-.54h3.62l4.24-7.02c.72.19,1.41.29,2.06.29s1.38-.1,2.1-.29l-4.16,7.02h4.74Z"/>
        <path class="st4" d="M211.83,298.52c0,.51-1.76,2.85-5.29,7.03-2.85,3.43-5.1,5.15-6.74,5.15-1.11,0-2.02-.42-2.72-1.25-.7-.83-1.05-1.88-1.05-3.13s.39-2.72,1.16-4.24c-2.41,3.38-4.26,5.66-5.54,6.84s-2.52,1.77-3.73,1.77c-1.28,0-2.35-.55-3.22-1.65-.87-1.1-1.3-2.48-1.3-4.15,0-4.63,3.27-8.74,9.81-12.31,2.87-1.59,5.19-2.39,6.95-2.39,1.5,0,2.24.72,2.24,2.17,0,.41-.1.95-.29,1.63l1.85-3.51c.72.17,1.36.25,1.92.25.65,0,1.5-.08,2.53-.25l-6.41,10.61c-2.22,3.72-3.33,6.17-3.33,7.35s.47,1.7,1.41,1.7,2.51-1.11,4.64-3.32c2.13-2.21,4.29-4.94,6.49-8.18.14-.24.28-.36.4-.36.14,0,.22.07.22.22ZM201.85,292.53c0-1.18-.54-1.77-1.63-1.77-2.22,0-5.14,2.17-8.74,6.52-3.61,4.34-5.41,7.86-5.41,10.54,0,1.57.7,2.35,2.1,2.35,1.67,0,4.55-2.76,8.65-8.29,3.35-4.54,5.03-7.65,5.03-9.34Z"/>
        <path class="st4" d="M232.08,272.87c-10.14,16.87-16.05,26.79-17.72,29.76-1.68,2.97-2.52,4.94-2.52,5.9,0,1.09.46,1.63,1.38,1.63,2.03,0,5.75-3.83,11.17-11.5.12-.24.27-.36.44-.36.1.02.14.1.14.22,0,.15-.12.34-.36.58l-1.56,2.14c-4.57,6.31-7.94,9.46-10.11,9.46-1.04,0-1.89-.39-2.56-1.18-.66-.78-1-1.78-1-2.99,0-1.33.31-2.61.92-3.86.62-1.24,2.71-4.83,6.28-10.77,4.37-7.26,8.05-13.56,11.04-18.9.72.19,1.36.29,1.92.29.92,0,1.76-.14,2.53-.43Z"/>
        <path class="st4" d="M337.13,266.49c0,.43-.25.65-.76.65-.22,0-1.03-.14-2.43-.43-2.58-.53-4.73-.8-6.44-.8-3.89,1.18-7.32,3.48-10.3,6.88-2.98,3.4-6.38,8.92-10.19,16.55-5.84,11.71-13.32,18.62-22.45,20.75,1.91.29,3.56.43,4.96.43,4.44,0,8.18-1.43,11.2-4.28,2.92-2.76,5.35-5.68,7.28-8.77.22-.34.39-.51.51-.51.14,0,.23.05.25.14,0,.36-1.39,2.24-4.17,5.62-2.58,3.17-4.94,5.35-7.06,6.54-2.13,1.2-4.72,1.79-7.79,1.79-1.76,0-3.91-.25-6.45-.76-1.54.51-3.32.76-5.33.76-1.4,0-2.1-.25-2.1-.76,0-.58.94-.87,2.82-.87,1.33,0,2.86.12,4.6.36,3.74-.89,6.57-2.37,8.49-4.42,1.92-2.05,5.62-7.6,11.1-16.65h-13.94c-5.91,6.23-10.49,10.66-13.72,13.29-7.55,6.13-14.67,9.2-21.36,9.2-3.81,0-7.05-.89-9.72-2.68s-4-3.96-4-6.52c0-1.33.4-2.46,1.21-3.4s1.79-1.41,2.95-1.41c1.57,0,2.35.76,2.35,2.28,0,.8-.27,1.48-.81,2.05-.54.57-1.17.85-1.89.85-1.13,0-1.69-.54-1.69-1.63l.07-.72c.05-.1.07-.23.07-.4,0-.24-.11-.36-.32-.36-.24,0-.48.3-.72.91-.24.6-.36,1.22-.36,1.85,0,2.37,1.24,4.36,3.73,5.99,2.48,1.63,5.54,2.44,9.15,2.44,5.18,0,10.89-2.55,17.11-7.64,1.42-1.13,3-2.63,4.74-4.49,3.45-3.62,6.2-6.44,8.25-8.47l1.08-1.12h-7.02l.43-.65c2.32,0,4.69.02,7.13.07,7.07-7.87,13.93-13.62,20.58-17.25,6.65-3.63,13.68-5.47,21.09-5.52,1.71-.34,3.32-.51,4.82-.51,3.35,0,5.03.54,5.03,1.63ZM298.37,273.07c0,.27-.45.91-1.34,1.92-2.46,2.83-4.8,4.25-7,4.25-1.4,0-2.54-.49-3.43-1.47s-1.32-2.26-1.32-3.86c0-1.35.8-3.54,2.39-6.55.75-1.4,1.12-2.56,1.12-3.48,0-1.21-.67-2.24-2.01-3.1-1.34-.86-2.98-1.29-4.91-1.29-5.53,0-10.65,2.12-15.37,6.37-4.72,4.25-7.08,8.85-7.08,13.79,0,2.51.79,4.56,2.37,6.15s3.63,2.39,6.14,2.39c2.73,0,5.48-1,8.24-2.99,2.77-1.99,4.72-4.39,5.85-7.19.07-.24.17-.36.29-.36.22,0,.33.12.33.36,0,.51-.42,1.41-1.27,2.7-.85,1.29-1.71,2.37-2.61,3.24-3.26,3.21-6.92,4.82-10.98,4.82-2.75,0-4.96-.84-6.63-2.53-1.67-1.69-2.5-3.93-2.5-6.73,0-5.09,2.46-9.81,7.37-14.16,4.91-4.34,10.24-6.52,15.99-6.52,2.53,0,4.52.63,5.96,1.88,1.44,1.26,2.15,2.98,2.15,5.18,0,1.64-.58,3.58-1.74,5.83-1.04,2.05-1.56,3.44-1.56,4.16,0,1.79,1.06,2.68,3.19,2.68,2.42,0,4.92-1.79,7.51-5.38.22-.29.4-.44.54-.44.19,0,.29.1.29.29ZM325.65,266.06c-6.3.31-12.14,2.12-17.52,5.43-5.38,3.31-11.59,8.86-18.61,16.65h13.72c3.09-5.38,6.82-10.21,11.19-14.48,4.3-4.25,8.04-6.78,11.22-7.6Z"/>
        <path class="st4" d="M326.19,296c0,3.93-2.45,7.52-7.35,10.75-3.98,2.63-7.1,3.95-9.34,3.95-1.54,0-2.32-.72-2.32-2.17,0-.43.12-1.03.36-1.77l-13.87,23.14c-.84-.19-1.53-.29-2.06-.29-.8,0-1.58.14-2.35.43l29.73-48.88c.65.22,1.29.33,1.92.33s1.45-.11,2.39-.33l-10.75,17.38c2.58-3.43,4.46-5.67,5.63-6.73s2.34-1.59,3.49-1.59c1.28,0,2.35.56,3.22,1.67.87,1.11,1.3,2.49,1.3,4.13ZM323.51,293.11c0-1.57-.7-2.35-2.1-2.35-1.76,0-4.72,2.84-8.87,8.51-3.21,4.39-4.82,7.41-4.82,9.05,0,1.23.57,1.85,1.7,1.85,2.22,0,5.12-2.17,8.71-6.5,3.58-4.33,5.38-7.85,5.38-10.55Z"/>
        <path class="st4" d="M347.03,296c0,3.93-2.45,7.52-7.35,10.75-3.98,2.63-7.1,3.95-9.34,3.95-1.54,0-2.32-.72-2.32-2.17,0-.43.12-1.03.36-1.77l-13.87,23.14c-.84-.19-1.53-.29-2.06-.29-.8,0-1.58.14-2.35.43l29.73-48.88c.65.22,1.29.33,1.92.33s1.45-.11,2.39-.33l-10.75,17.38c2.58-3.43,4.46-5.67,5.63-6.73s2.34-1.59,3.49-1.59c1.28,0,2.35.56,3.22,1.67.87,1.11,1.3,2.49,1.3,4.13ZM344.35,293.11c0-1.57-.7-2.35-2.1-2.35-1.76,0-4.72,2.84-8.87,8.51-3.21,4.39-4.82,7.41-4.82,9.05,0,1.23.57,1.85,1.7,1.85,2.22,0,5.12-2.17,8.71-6.5,3.58-4.33,5.38-7.85,5.38-10.55Z"/>
        <path class="st4" d="M376.12,298.52c0,.51-1.76,2.85-5.29,7.03-2.85,3.43-5.1,5.15-6.74,5.15-1.11,0-2.02-.42-2.72-1.25-.7-.83-1.05-1.88-1.05-3.13s.39-2.72,1.16-4.24c-2.41,3.38-4.26,5.66-5.54,6.84-1.28,1.18-2.52,1.77-3.73,1.77-1.28,0-2.35-.55-3.22-1.65-.87-1.1-1.3-2.48-1.3-4.15,0-4.63,3.27-8.74,9.81-12.31,2.87-1.59,5.19-2.39,6.95-2.39,1.5,0,2.25.72,2.25,2.17,0,.41-.1.95-.29,1.63l1.85-3.51c.72.17,1.36.25,1.92.25.65,0,1.5-.08,2.53-.25l-6.41,10.61c-2.22,3.72-3.33,6.17-3.33,7.35s.47,1.7,1.41,1.7,2.51-1.11,4.64-3.32,4.29-4.94,6.49-8.18c.14-.24.28-.36.4-.36.15,0,.22.07.22.22ZM366.14,292.53c0-1.18-.54-1.77-1.63-1.77-2.22,0-5.13,2.17-8.74,6.52s-5.41,7.86-5.41,10.54c0,1.57.7,2.35,2.1,2.35,1.67,0,4.55-2.76,8.65-8.29,3.36-4.54,5.03-7.65,5.03-9.34Z"/>
        <path class="st4" d="M398.01,298.52c0,.19-.73,1.08-2.18,2.65-1.84,2.03-3.57,3.05-5.19,3.05-1.84,0-2.76-1.06-2.76-3.19,0-.68.14-1.53.43-2.57-1.52,1.33-2.76,2.64-3.71,3.95-.95,1.3-2.6,3.96-4.94,7.96-1.28-.1-2.03-.14-2.25-.14-.1,0-.83.05-2.21.14l5.94-9.63c2.97-4.83,4.45-7.82,4.45-8.98,0-.68-.28-1.01-.83-1.01-1.35,0-3.81,2.6-7.36,7.8-.22.34-.41.51-.58.51-.1-.02-.14-.1-.14-.22.02-.12.07-.22.14-.29l.65-.91c3.72-4.96,6.25-7.44,7.58-7.44,1.93,0,2.9,1.24,2.9,3.73,0,1.86-.99,4.32-2.97,7.39,1.25-1.45,2.45-2.63,3.58-3.55.92-2.15,2.06-3.95,3.42-5.39,1.36-1.45,2.59-2.17,3.67-2.17.75,0,1.12.33,1.12.98,0,1.16-1.68,2.81-5.03,4.96-.53.34-1.33.83-2.39,1.48l-.43.36c-.34,1.11-.51,2.03-.51,2.75,0,2.03.76,3.04,2.29,3.04,1.89,0,3.94-1.56,6.17-4.69.48-.53.79-.8.91-.8.15,0,.22.07.22.22Z"/>
        <path class="st4" d="M417.41,298.56c0,.07-.22.39-.65.94l-1.56,1.95c-5,6.17-9.29,9.26-12.86,9.26-1.69,0-3.11-.61-4.26-1.83-1.15-1.22-1.72-2.75-1.72-4.58,0-4.35,3.03-8.17,9.09-11.48,3.19-1.74,5.78-2.61,7.78-2.61.87,0,1.61.26,2.23.78.62.52.92,1.15.92,1.9,0,1.74-1.13,3.22-3.4,4.44-2.27,1.22-6.06,2.36-11.37,3.42-1.64,2.49-2.46,4.56-2.46,6.23,0,2.08,1.12,3.11,3.37,3.11,3.82,0,8.49-3.72,14.03-11.17.29-.39.53-.58.72-.58.1.02.14.1.14.22ZM414.35,291.84c0-.77-.42-1.16-1.27-1.16-1.28,0-2.96.89-5.05,2.66-2.09,1.77-4.13,4.07-6.14,6.9,3.48-.89,6.42-2.15,8.83-3.78,2.41-1.63,3.62-3.17,3.62-4.62Z"/>
        <path class="st4" d="M437.59,272.87c-10.14,16.87-16.04,26.79-17.72,29.76s-2.52,4.94-2.52,5.9c0,1.09.46,1.63,1.38,1.63,2.03,0,5.75-3.83,11.17-11.5.12-.24.27-.36.44-.36.1.02.14.1.14.22,0,.15-.12.34-.36.58l-1.56,2.14c-4.57,6.31-7.94,9.46-10.11,9.46-1.04,0-1.89-.39-2.56-1.18-.67-.78-1-1.78-1-2.99,0-1.33.31-2.61.92-3.86.62-1.24,2.71-4.83,6.28-10.77,4.37-7.26,8.05-13.56,11.04-18.9.72.19,1.36.29,1.92.29.92,0,1.76-.14,2.53-.43Z"/>
      </g>
      <text class="st0" transform="translate(443.4 311.72)"><tspan x="0" y="0">,Coming Soon</tspan></text>
      <g>
        <path class="st1" d="M60.11,349.79v18.91h-2.65v-18.91h2.65Z"/>
        <path class="st1" d="M64.54,368.71v-13.5h2.65v13.5h-2.65ZM72.73,368.71v-8.18c0-.95-.25-1.69-.73-2.21-.49-.52-1.19-.78-2.09-.78s-1.54.23-2.01.69-.71,1.11-.71,1.94l-.27-2.6c.42-.81.96-1.44,1.63-1.89s1.42-.66,2.23-.66c1.47,0,2.6.48,3.4,1.44.8.96,1.2,2.31,1.2,4.06v8.2h-2.65Z"/>
        <path class="st1" d="M84.19,368.9c-1.2,0-2.28-.18-3.26-.53-.98-.35-1.85-.88-2.62-1.58l1.57-1.94c.74.56,1.46.97,2.18,1.25s1.42.42,2.13.42c1.05,0,1.84-.16,2.36-.49.52-.33.79-.81.79-1.46,0-.5-.18-.86-.53-1.07-.35-.21-.81-.34-1.38-.41-.57-.06-1.18-.12-1.83-.16-.55-.04-1.09-.11-1.63-.2-.54-.09-1.03-.26-1.47-.49-.44-.24-.8-.59-1.06-1.06-.26-.47-.4-1.1-.4-1.89,0-1.43.44-2.5,1.31-3.21s2.18-1.07,3.92-1.07c1.06,0,2.04.14,2.95.43.91.29,1.76.72,2.56,1.31l-1.6,1.94c-.68-.43-1.34-.76-2-.98-.66-.22-1.29-.33-1.92-.33-.9,0-1.58.15-2.03.46s-.68.77-.68,1.39c0,.41.16.7.47.88s.72.29,1.24.34,1.06.1,1.65.14c.56.04,1.13.1,1.71.19.58.09,1.11.27,1.59.53.49.26.88.65,1.17,1.16.29.51.44,1.21.44,2.09,0,1.45-.47,2.53-1.41,3.25s-2.36,1.08-4.25,1.08Z"/>
        <path class="st1" d="M93.23,374.2v-18.99h2.65v18.99h-2.65ZM99.28,368.9c-.84,0-1.57-.2-2.2-.61s-1.08-.97-1.38-1.71l.18-2.82c0,.58.1,1.08.31,1.48.21.41.51.72.9.94s.87.33,1.44.33c.88,0,1.55-.27,2.04-.8s.72-1.29.72-2.26v-2.93c0-.99-.24-1.76-.72-2.3-.48-.55-1.16-.82-2.04-.82-.56,0-1.04.1-1.44.31s-.7.51-.9.91c-.21.4-.31.88-.31,1.46l-.27-2.6c.41-.79.94-1.4,1.6-1.83.66-.43,1.39-.64,2.2-.64,1.45,0,2.57.48,3.36,1.44.79.96,1.18,2.31,1.18,4.06v2.94c0,1.73-.41,3.07-1.22,4.02s-1.96,1.43-3.45,1.43Z"/>
        <path class="st1" d="M107.72,352.45v-2.65h2.65v2.65h-2.65ZM107.72,368.71v-13.5h2.65v13.5h-2.65Z"/>
        <path class="st1" d="M114.41,368.71v-13.5h2.65v13.5h-2.65ZM121.84,358.41c-.23-.29-.53-.5-.88-.65-.36-.15-.77-.22-1.24-.22-.84,0-1.49.23-1.96.7-.46.46-.7,1.11-.7,1.93l-.27-2.6c.41-.8.94-1.42,1.61-1.87.66-.45,1.39-.68,2.19-.68.62,0,1.17.09,1.67.27s.93.44,1.31.79l-1.73,2.34Z"/>
        <path class="st1" d="M131.05,368.9c-1.88,0-3.34-.52-4.37-1.57-1.03-1.05-1.55-2.54-1.55-4.47v-1.52c0-2.01.5-3.57,1.49-4.67.99-1.1,2.39-1.65,4.19-1.65,1.7,0,3.02.62,3.95,1.87.93,1.25,1.4,3,1.4,5.25v.88h-9.11v-2.13h6.58c-.08-1.09-.36-1.95-.85-2.56-.49-.62-1.15-.92-1.97-.92-1,0-1.77.33-2.33.99-.56.66-.83,1.59-.83,2.8v1.72c0,1.12.3,1.98.89,2.58.59.6,1.43.9,2.5.9.54,0,1.07-.11,1.6-.33.53-.22,1-.52,1.42-.91l1.74,1.74c-.67.64-1.42,1.14-2.25,1.49-.83.35-1.67.53-2.51.53Z"/>
        <path class="st1" d="M144.08,368.94c-1.49,0-2.64-.48-3.45-1.44s-1.22-2.31-1.22-4.05v-2.98c0-1.75.4-3.11,1.19-4.06.79-.96,1.91-1.44,3.35-1.44.8,0,1.53.21,2.19.62s1.2,1,1.61,1.76l-.27,2.76c0-.57-.1-1.06-.31-1.47-.21-.41-.51-.72-.9-.93-.4-.21-.87-.32-1.44-.32-.88,0-1.55.27-2.04.82-.48.55-.72,1.31-.72,2.3v2.94c0,.98.24,1.74.72,2.27.48.53,1.16.8,2.04.8.56,0,1.04-.11,1.44-.33.39-.22.7-.54.9-.96.21-.42.31-.91.31-1.5l.18,2.85c-.24.61-.66,1.15-1.26,1.63-.59.48-1.37.72-2.32.72ZM147.48,368.71v-18.91h2.65v18.91h-2.65Z"/>
        <path class="st1" d="M161.32,368.71v-18.91h2.65v18.91h-2.65ZM167.37,368.9c-.84,0-1.57-.2-2.2-.61s-1.08-.97-1.38-1.71l.18-2.82c0,.58.1,1.08.31,1.48.21.41.51.72.9.94s.87.33,1.44.33c.88,0,1.55-.27,2.04-.8s.72-1.29.72-2.26v-2.93c0-.99-.24-1.76-.72-2.3-.48-.55-1.16-.82-2.04-.82-.56,0-1.04.1-1.44.31s-.7.51-.9.91c-.21.4-.31.88-.31,1.46l-.27-2.6c.41-.79.94-1.4,1.6-1.83.66-.43,1.39-.64,2.2-.64,1.45,0,2.57.48,3.36,1.44.79.96,1.18,2.31,1.18,4.06v2.94c0,1.73-.41,3.07-1.22,4.02s-1.96,1.43-3.45,1.43Z"/>
        <path class="st1" d="M179.24,369.81l-5.39-14.61h2.71l4.15,11.73-1.47,2.88ZM183.11,355.21h2.71l-5.75,16.66c-.32.93-.79,1.57-1.39,1.93-.61.36-1.44.54-2.5.54h-.53v-2.55h.53c.49,0,.89-.1,1.18-.3.29-.2.54-.54.76-1.03l5-15.26Z"/>
        <path class="st1" d="M195.57,368.71v-18.91h2.65v18.91h-2.65ZM197.36,368.71v-2.52h4.28c1.4,0,2.48-.36,3.25-1.09.77-.72,1.15-1.75,1.15-3.06v-5.57c0-1.32-.38-2.34-1.15-3.06-.77-.72-1.85-1.09-3.25-1.09h-4.28v-2.52h4.2c2.29,0,4.06.59,5.31,1.78,1.25,1.18,1.88,2.85,1.88,5v5.36c0,1.43-.28,2.65-.85,3.66-.56,1.01-1.38,1.78-2.46,2.32s-2.38.8-3.9.8h-4.19Z"/>
        <path class="st1" d="M215.44,355.21v8.21c0,.95.24,1.68.72,2.19.48.52,1.16.77,2.04.77s1.55-.23,2.02-.7c.47-.46.71-1.12.71-1.96l.18,2.82c-.24.61-.67,1.15-1.27,1.63-.61.48-1.4.72-2.38.72-1.49,0-2.64-.48-3.45-1.44-.81-.96-1.22-2.31-1.22-4.05v-8.21h2.65ZM220.93,368.71v-13.5h2.64v13.5h-2.64Z"/>
        <path class="st1" d="M227.61,368.71v-18.91h2.65v18.91h-2.65ZM228.58,366.73l.17-3.15,6.95-8.38h3.12l-10.24,11.53ZM236.59,368.71l-4.71-7.79,1.7-1.77,5.89,9.56h-2.89Z"/>
        <path class="st1" d="M247.22,368.9c-1.88,0-3.34-.52-4.37-1.57-1.03-1.05-1.55-2.54-1.55-4.47v-1.52c0-2.01.5-3.57,1.49-4.67.99-1.1,2.39-1.65,4.19-1.65,1.7,0,3.02.62,3.95,1.87.93,1.25,1.4,3,1.4,5.25v.88h-9.11v-2.13h6.58c-.08-1.09-.36-1.95-.85-2.56-.49-.62-1.15-.92-1.97-.92-1,0-1.77.33-2.33.99-.56.66-.83,1.59-.83,2.8v1.72c0,1.12.3,1.98.89,2.58.59.6,1.43.9,2.5.9.54,0,1.07-.11,1.6-.33.53-.22,1-.52,1.42-.91l1.74,1.74c-.67.64-1.42,1.14-2.25,1.49-.83.35-1.67.53-2.51.53Z"/>
        <path class="st1" d="M263.39,368.71v-18.91h2.65v18.91h-2.65ZM265.08,364.39l.39-3.98,8.35-10.62h3.27l-12.01,14.6ZM274.63,368.71l-6.01-10.09,2.09-1.94,7.17,12.03h-3.25Z"/>
        <path class="st1" d="M284.28,368.9c-1.66,0-2.9-.34-3.73-1.03-.83-.68-1.24-1.73-1.24-3.15s.38-2.35,1.14-3.01c.76-.66,1.9-1,3.41-1h3.84l.18,2.13h-4.01c-.69,0-1.2.15-1.55.46s-.52.78-.52,1.41c0,.69.23,1.19.69,1.52.46.33,1.15.5,2.07.5,1.01,0,1.76-.11,2.26-.33s.75-.56.75-1.01l.27,1.9c-.23.36-.52.66-.87.9-.35.23-.74.41-1.19.53-.45.12-.95.18-1.52.18ZM287.59,368.71v-8.56c0-.88-.24-1.57-.71-2.06s-1.14-.74-2.01-.74c-.53,0-1.05.08-1.57.24-.52.16-.98.39-1.39.7l-1.94-1.33c.51-.62,1.19-1.09,2.02-1.44s1.77-.51,2.79-.51c1.69,0,3,.44,3.93,1.31.93.88,1.39,2.11,1.39,3.71v8.68h-2.52Z"/>
        <path class="st1" d="M294.14,368.71v-18.91h2.65v18.91h-2.65ZM302.34,368.71v-8.18c0-.95-.25-1.69-.73-2.21-.49-.52-1.19-.78-2.09-.78s-1.54.23-2.01.68c-.47.45-.71,1.09-.71,1.91l-.27-2.6c.42-.8.96-1.42,1.63-1.85.67-.44,1.42-.66,2.23-.66,1.47,0,2.6.48,3.4,1.44.8.96,1.2,2.31,1.2,4.06v8.2h-2.65Z"/>
        <path class="st1" d="M313.34,368.9c-1.66,0-2.9-.34-3.73-1.03-.83-.68-1.24-1.73-1.24-3.15s.38-2.35,1.14-3.01c.76-.66,1.9-1,3.41-1h3.84l.18,2.13h-4.01c-.69,0-1.2.15-1.55.46s-.52.78-.52,1.41c0,.69.23,1.19.69,1.52.46.33,1.15.5,2.07.5,1.01,0,1.76-.11,2.26-.33s.75-.56.75-1.01l.27,1.9c-.23.36-.52.66-.87.9-.35.23-.74.41-1.19.53-.45.12-.95.18-1.52.18ZM316.65,368.71v-8.56c0-.88-.24-1.57-.71-2.06s-1.14-.74-2.01-.74c-.53,0-1.05.08-1.57.24-.52.16-.98.39-1.39.7l-1.94-1.33c.51-.62,1.19-1.09,2.02-1.44s1.77-.51,2.79-.51c1.69,0,3,.44,3.93,1.31.93.88,1.39,2.11,1.39,3.71v8.68h-2.52Z"/>
        <path class="st1" d="M323.2,368.71v-13.5h2.65v13.5h-2.65ZM331.4,368.71v-8.18c0-.95-.25-1.69-.73-2.21-.49-.52-1.19-.78-2.09-.78s-1.54.23-2.01.69-.71,1.11-.71,1.94l-.27-2.6c.42-.81.96-1.44,1.63-1.89s1.42-.66,2.23-.66c1.47,0,2.6.48,3.4,1.44.8.96,1.2,2.31,1.2,4.06v8.2h-2.65Z"/>
        <path class="st1" d="M342.4,368.9c-1.66,0-2.9-.34-3.73-1.03-.83-.68-1.24-1.73-1.24-3.15s.38-2.35,1.14-3.01c.76-.66,1.9-1,3.41-1h3.84l.18,2.13h-4.01c-.69,0-1.2.15-1.55.46s-.52.78-.52,1.41c0,.69.23,1.19.69,1.52.46.33,1.15.5,2.07.5,1.01,0,1.76-.11,2.26-.33s.75-.56.75-1.01l.27,1.9c-.23.36-.52.66-.87.9-.35.23-.74.41-1.19.53-.45.12-.95.18-1.52.18ZM345.71,368.71v-8.56c0-.88-.24-1.57-.71-2.06s-1.14-.74-2.01-.74c-.53,0-1.05.08-1.57.24-.52.16-.98.39-1.39.7l-1.94-1.33c.51-.62,1.19-1.09,2.02-1.44s1.77-.51,2.79-.51c1.69,0,3,.44,3.93,1.31.93.88,1.39,2.11,1.39,3.71v8.68h-2.52Z"/>
        <path class="st1" d="M352.26,368.71v-13.5h2.65v13.5h-2.65ZM360.33,368.71v-8.18c0-.95-.23-1.69-.7-2.21s-1.13-.78-1.99-.78-1.54.23-2.01.69-.71,1.11-.71,1.94l-.27-2.6c.42-.81.96-1.44,1.63-1.89s1.42-.66,2.23-.66c1.42,0,2.52.48,3.3,1.44.78.96,1.17,2.31,1.17,4.06v8.2h-2.65ZM368.39,368.71v-8.18c0-.95-.25-1.69-.73-2.21-.49-.52-1.19-.78-2.09-.78-.82,0-1.46.25-1.91.75-.45.5-.68,1.21-.68,2.13l-.53-2.6c.43-.9,1-1.6,1.69-2.08.69-.49,1.46-.73,2.3-.73,1.47,0,2.6.48,3.4,1.44.8.96,1.2,2.31,1.2,4.06v8.2h-2.65Z"/>
        <path class="st1" d="M380.26,368.9c-1.77,0-3.14-.51-4.11-1.54-.97-1.03-1.46-2.47-1.46-4.34v-2.2c0-1.85.49-3.28,1.46-4.29s2.34-1.52,4.11-1.52,3.14.51,4.11,1.52,1.46,2.45,1.46,4.29v2.24c0,1.86-.49,3.29-1.46,4.31-.97,1.02-2.34,1.53-4.11,1.53ZM380.26,366.38c.93,0,1.65-.29,2.15-.87s.76-1.4.76-2.45v-2.24c0-1.05-.25-1.86-.76-2.43s-1.23-.86-2.15-.86-1.63.29-2.15.86-.77,1.38-.77,2.43v2.24c0,1.05.26,1.86.77,2.45s1.23.87,2.15.87Z"/>
        <path class="st1" d="M389.6,368.71v-18.91h2.65v18.91h-2.65ZM390.57,366.73l.17-3.15,6.95-8.38h3.12l-10.24,11.53ZM398.59,368.71l-4.71-7.79,1.7-1.77,5.89,9.56h-2.89Z"/>
        <path class="st1" d="M406.34,355.21v8.21c0,.95.24,1.68.72,2.19.48.52,1.16.77,2.04.77s1.55-.23,2.02-.7c.47-.46.71-1.12.71-1.96l.18,2.82c-.24.61-.67,1.15-1.27,1.63-.61.48-1.4.72-2.38.72-1.49,0-2.64-.48-3.45-1.44-.81-.96-1.22-2.31-1.22-4.05v-8.21h2.65ZM411.83,368.71v-13.5h2.64v13.5h-2.64Z"/>
        <path class="st1" d="M431.24,360.4c-1.08,0-1.91.27-2.5.81-.59.54-.89,1.3-.89,2.28s.31,1.71.94,2.24,1.52.8,2.66.8c1.64,0,2.91-.65,3.81-1.94.9-1.29,1.35-3.11,1.35-5.46h2.52c0,2.07-.33,3.84-.98,5.29s-1.59,2.57-2.82,3.34c-1.23.77-2.72,1.15-4.48,1.15s-3.15-.47-4.13-1.42-1.46-2.28-1.46-4.01c0-1.55.43-2.79,1.28-3.72.85-.93,2.05-1.46,3.6-1.6l1.09,2.24ZM437.18,368.71l-7.21-7.52c-.89-.94-1.59-1.94-2.1-3.01-.51-1.07-.76-2.18-.76-3.34,0-1.66.44-2.94,1.33-3.84s2.13-1.36,3.75-1.36,2.85.44,3.73,1.31c.88.87,1.32,2.11,1.32,3.7v.26h-2.65v-.26c0-.77-.21-1.37-.62-1.79-.42-.42-1.01-.63-1.77-.63s-1.36.23-1.78.68c-.42.46-.64,1.1-.64,1.93,0,.76.18,1.55.55,2.37.37.82.89,1.58,1.58,2.3l8.65,9.2h-3.37Z"/>
        <path class="st1" d="M448.62,368.71l6.97-18.91h2.26l6.97,18.91h-2.86l-5.24-15.26-5.24,15.26h-2.86ZM451.83,364.56v-2.52h9.95v2.52h-9.95Z"/>
        <path class="st1" d="M470.08,355.21v8.21c0,.95.24,1.68.72,2.19.48.52,1.16.77,2.04.77s1.55-.23,2.02-.7.71-1.12.71-1.96l.18,2.82c-.24.61-.67,1.15-1.27,1.63-.61.48-1.4.72-2.38.72-1.49,0-2.64-.48-3.45-1.44-.81-.96-1.22-2.31-1.22-4.05v-8.21h2.65ZM475.57,368.71v-13.5h2.64v13.5h-2.64Z"/>
        <path class="st1" d="M487.02,368.9c-1.2,0-2.28-.18-3.26-.53-.98-.35-1.85-.88-2.62-1.58l1.57-1.94c.74.56,1.46.97,2.18,1.25s1.42.42,2.13.42c1.05,0,1.84-.16,2.36-.49.53-.33.79-.81.79-1.46,0-.5-.17-.86-.53-1.07s-.81-.34-1.38-.41c-.57-.06-1.18-.12-1.83-.16-.55-.04-1.09-.11-1.63-.2-.54-.09-1.03-.26-1.47-.49s-.8-.59-1.06-1.06c-.26-.47-.4-1.1-.4-1.89,0-1.43.44-2.5,1.31-3.21.88-.71,2.18-1.07,3.92-1.07,1.06,0,2.04.14,2.95.43.91.29,1.76.72,2.56,1.31l-1.6,1.94c-.68-.43-1.34-.76-2-.98-.66-.22-1.29-.33-1.92-.33-.9,0-1.58.15-2.03.46s-.68.77-.68,1.39c0,.41.16.7.47.88s.72.29,1.24.34,1.06.1,1.65.14c.56.04,1.13.1,1.71.19.58.09,1.11.27,1.59.53.49.26.88.65,1.17,1.16s.44,1.21.44,2.09c0,1.45-.47,2.53-1.41,3.25-.94.72-2.36,1.08-4.25,1.08Z"/>
        <path class="st1" d="M495.02,357.6v-2.39h6.09v2.39h-6.09ZM499.57,368.77c-1.11,0-1.92-.31-2.41-.92-.5-.62-.75-1.5-.75-2.65v-13.92h2.65v13.94c0,.32.07.57.2.75.13.18.32.27.57.27h1.28v2.52h-1.54Z"/>
        <path class="st1" d="M504.75,368.71v-13.5h2.65v13.5h-2.65ZM512.17,358.41c-.23-.29-.53-.5-.88-.65s-.77-.22-1.24-.22c-.84,0-1.49.23-1.96.7-.46.46-.7,1.11-.7,1.93l-.27-2.6c.41-.8.94-1.42,1.61-1.87.66-.45,1.39-.68,2.19-.68.62,0,1.17.09,1.67.27s.93.44,1.31.79l-1.73,2.34Z"/>
        <path class="st1" d="M520.43,368.9c-1.66,0-2.9-.34-3.73-1.03-.83-.68-1.24-1.73-1.24-3.15s.38-2.35,1.14-3.01c.76-.66,1.9-1,3.41-1h3.84l.18,2.13h-4.01c-.69,0-1.2.15-1.55.46-.35.31-.52.78-.52,1.41,0,.69.23,1.19.69,1.52.46.33,1.15.5,2.07.5,1.01,0,1.76-.11,2.26-.33s.75-.56.75-1.01l.27,1.9c-.23.36-.53.66-.87.9-.35.23-.74.41-1.19.53-.45.12-.95.18-1.51.18ZM523.74,368.71v-8.56c0-.88-.24-1.57-.71-2.06s-1.14-.74-2.01-.74c-.53,0-1.05.08-1.57.24-.52.16-.98.39-1.39.7l-1.94-1.33c.51-.62,1.19-1.09,2.02-1.44s1.77-.51,2.79-.51c1.69,0,3,.44,3.93,1.31s1.39,2.11,1.39,3.71v8.68h-2.52Z"/>
        <path class="st1" d="M532.95,349.79v15.43c0,.32.07.57.21.75.14.18.34.27.61.27h1.25v2.52h-1.56c-1,0-1.77-.31-2.33-.94-.56-.62-.83-1.5-.83-2.64v-15.4h2.65Z"/>
        <path class="st1" d="M538.01,352.45v-2.65h2.65v2.65h-2.65ZM538.01,368.71v-13.5h2.65v13.5h-2.65Z"/>
        <path class="st1" d="M549.01,368.9c-1.66,0-2.9-.34-3.73-1.03-.83-.68-1.24-1.73-1.24-3.15s.38-2.35,1.14-3.01c.76-.66,1.9-1,3.41-1h3.84l.18,2.13h-4.01c-.69,0-1.2.15-1.55.46-.35.31-.52.78-.52,1.41,0,.69.23,1.19.69,1.52.46.33,1.15.5,2.07.5,1.01,0,1.76-.11,2.26-.33s.75-.56.75-1.01l.27,1.9c-.23.36-.53.66-.87.9-.35.23-.74.41-1.19.53-.45.12-.95.18-1.51.18ZM552.32,368.71v-8.56c0-.88-.24-1.57-.71-2.06s-1.14-.74-2.01-.74c-.53,0-1.05.08-1.57.24-.52.16-.98.39-1.39.7l-1.94-1.33c.51-.62,1.19-1.09,2.02-1.44s1.77-.51,2.79-.51c1.69,0,3,.44,3.93,1.31s1.39,2.11,1.39,3.71v8.68h-2.52Z"/>
        <path class="st1" d="M558.87,368.71v-13.5h2.65v13.5h-2.65ZM567.07,368.71v-8.18c0-.95-.25-1.69-.74-2.21-.49-.52-1.19-.78-2.09-.78s-1.54.23-2.01.69c-.47.46-.71,1.11-.71,1.94l-.27-2.6c.42-.81.96-1.44,1.63-1.89.67-.44,1.42-.66,2.23-.66,1.47,0,2.6.48,3.4,1.44.8.96,1.2,2.31,1.2,4.06v8.2h-2.65Z"/>
        <path class="st1" d="M587.36,368.9c-1.32,0-2.47-.29-3.46-.88-.99-.59-1.76-1.41-2.3-2.47-.55-1.06-.82-2.29-.82-3.71v-5.19c0-1.42.27-2.66.82-3.72.55-1.06,1.31-1.88,2.3-2.46.99-.59,2.14-.88,3.46-.88,1.09,0,2.09.23,3,.7.91.47,1.67,1.12,2.28,1.96.61.84,1.03,1.83,1.24,2.95h-2.72c-.17-.61-.44-1.14-.83-1.59s-.84-.81-1.36-1.06c-.52-.25-1.06-.38-1.61-.38-1.16,0-2.1.41-2.8,1.23-.71.82-1.06,1.9-1.06,3.25v5.19c0,1.34.35,2.42,1.06,3.24.71.82,1.64,1.22,2.8,1.22.82,0,1.6-.26,2.33-.78.73-.52,1.22-1.27,1.47-2.25h2.72c-.22,1.13-.63,2.11-1.25,2.95-.62.84-1.38,1.5-2.28,1.96-.9.47-1.9.7-2.99.7Z"/>
        <path class="st1" d="M602.57,368.9c-1.77,0-3.14-.51-4.11-1.54-.97-1.03-1.46-2.47-1.46-4.34v-2.2c0-1.85.49-3.28,1.46-4.29.97-1.01,2.34-1.52,4.11-1.52s3.14.51,4.11,1.52c.97,1.01,1.46,2.45,1.46,4.29v2.24c0,1.86-.49,3.29-1.46,4.31-.97,1.02-2.34,1.53-4.11,1.53ZM602.57,366.38c.93,0,1.65-.29,2.15-.87.51-.58.76-1.4.76-2.45v-2.24c0-1.05-.25-1.86-.76-2.43-.51-.57-1.22-.86-2.15-.86s-1.63.29-2.15.86-.77,1.38-.77,2.43v2.24c0,1.05.26,1.86.77,2.45s1.23.87,2.15.87Z"/>
        <path class="st1" d="M616.23,368.9c-1.66,0-2.9-.34-3.73-1.03-.83-.68-1.24-1.73-1.24-3.15s.38-2.35,1.14-3.01c.76-.66,1.9-1,3.41-1h3.84l.18,2.13h-4.01c-.69,0-1.2.15-1.55.46-.35.31-.52.78-.52,1.41,0,.69.23,1.19.69,1.52.46.33,1.15.5,2.07.5,1.01,0,1.76-.11,2.26-.33s.75-.56.75-1.01l.27,1.9c-.23.36-.53.66-.87.9-.35.23-.74.41-1.19.53-.45.12-.95.18-1.51.18ZM619.53,368.71v-8.56c0-.88-.24-1.57-.71-2.06s-1.14-.74-2.01-.74c-.53,0-1.05.08-1.57.24-.52.16-.98.39-1.39.7l-1.94-1.33c.51-.62,1.19-1.09,2.02-1.44s1.77-.51,2.79-.51c1.69,0,3,.44,3.93,1.31s1.39,2.11,1.39,3.71v8.68h-2.52Z"/>
        <path class="st1" d="M630.86,368.9c-1.2,0-2.28-.18-3.26-.53-.98-.35-1.85-.88-2.62-1.58l1.57-1.94c.74.56,1.46.97,2.18,1.25s1.42.42,2.13.42c1.05,0,1.84-.16,2.36-.49.53-.33.79-.81.79-1.46,0-.5-.17-.86-.53-1.07s-.81-.34-1.38-.41c-.57-.06-1.18-.12-1.83-.16-.55-.04-1.09-.11-1.63-.2-.54-.09-1.03-.26-1.47-.49s-.8-.59-1.06-1.06c-.26-.47-.4-1.1-.4-1.89,0-1.43.44-2.5,1.31-3.21.88-.71,2.18-1.07,3.92-1.07,1.06,0,2.04.14,2.95.43.91.29,1.76.72,2.56,1.31l-1.6,1.94c-.68-.43-1.34-.76-2-.98-.66-.22-1.29-.33-1.92-.33-.9,0-1.58.15-2.03.46s-.68.77-.68,1.39c0,.41.16.7.47.88s.72.29,1.24.34,1.06.1,1.65.14c.56.04,1.13.1,1.71.19.58.09,1.11.27,1.59.53.49.26.88.65,1.17,1.16s.44,1.21.44,2.09c0,1.45-.47,2.53-1.41,3.25-.94.72-2.36,1.08-4.25,1.08Z"/>
        <path class="st1" d="M638.86,357.6v-2.39h6.09v2.39h-6.09ZM643.41,368.77c-1.11,0-1.92-.31-2.41-.92-.5-.62-.75-1.5-.75-2.65v-13.92h2.65v13.94c0,.32.07.57.2.75.13.18.32.27.57.27h1.28v2.52h-1.54Z"/>
        <path class="st1" d="M652.91,368.9c-1.66,0-2.9-.34-3.73-1.03-.83-.68-1.24-1.73-1.24-3.15s.38-2.35,1.14-3.01c.76-.66,1.9-1,3.41-1h3.84l.18,2.13h-4.01c-.69,0-1.2.15-1.55.46-.35.31-.52.78-.52,1.41,0,.69.23,1.19.69,1.52.46.33,1.15.5,2.07.5,1.01,0,1.76-.11,2.26-.33s.75-.56.75-1.01l.27,1.9c-.23.36-.53.66-.87.9-.35.23-.74.41-1.19.53-.45.12-.95.18-1.51.18ZM656.21,368.71v-8.56c0-.88-.24-1.57-.71-2.06s-1.14-.74-2.01-.74c-.53,0-1.05.08-1.57.24-.52.16-.98.39-1.39.7l-1.94-1.33c.51-.62,1.19-1.09,2.02-1.44s1.77-.51,2.79-.51c1.69,0,3,.44,3.93,1.31s1.39,2.11,1.39,3.71v8.68h-2.52Z"/>
        <path class="st1" d="M665.42,349.79v15.43c0,.32.07.57.21.75.14.18.34.27.61.27h1.25v2.52h-1.56c-1,0-1.77-.31-2.33-.94-.56-.62-.83-1.5-.83-2.64v-15.4h2.65Z"/>
        <path class="st1" d="M677.9,368.71v-18.91h2.65v18.91h-2.65ZM679.22,368.71v-2.52h10.82v2.52h-10.82Z"/>
        <path class="st1" d="M692.91,352.45v-2.65h2.65v2.65h-2.65ZM692.91,368.71v-13.5h2.65v13.5h-2.65Z"/>
        <path class="st1" d="M698.55,357.47v-2.26h6.75v2.26h-6.75ZM699.98,368.71v-15.34c0-1.19.27-2.08.82-2.68.55-.6,1.4-.9,2.55-.9h1.95v2.52h-1.9c-.27,0-.46.1-.58.31-.12.2-.18.45-.18.72v15.36h-2.65Z"/>
        <path class="st1" d="M713.17,368.9c-1.88,0-3.34-.52-4.37-1.57-1.03-1.05-1.55-2.54-1.55-4.47v-1.52c0-2.01.5-3.57,1.49-4.67.99-1.1,2.39-1.65,4.2-1.65,1.7,0,3.02.62,3.95,1.87.93,1.25,1.4,3,1.4,5.25v.88h-9.11v-2.13h6.58c-.08-1.09-.36-1.95-.85-2.56-.49-.62-1.15-.92-1.97-.92-1,0-1.77.33-2.33.99s-.83,1.59-.83,2.8v1.72c0,1.12.3,1.98.89,2.58.59.6,1.43.9,2.5.9.54,0,1.07-.11,1.6-.33.53-.22,1-.52,1.42-.91l1.74,1.74c-.67.64-1.42,1.14-2.25,1.49-.83.35-1.67.53-2.51.53Z"/>
        <path class="st1" d="M726.7,368.9c-1.2,0-2.28-.18-3.26-.53-.98-.35-1.85-.88-2.62-1.58l1.57-1.94c.74.56,1.46.97,2.18,1.25s1.42.42,2.13.42c1.05,0,1.84-.16,2.36-.49.53-.33.79-.81.79-1.46,0-.5-.17-.86-.53-1.07s-.81-.34-1.38-.41c-.57-.06-1.18-.12-1.83-.16-.55-.04-1.09-.11-1.63-.2-.54-.09-1.03-.26-1.47-.49s-.8-.59-1.06-1.06c-.26-.47-.4-1.1-.4-1.89,0-1.43.44-2.5,1.31-3.21.88-.71,2.18-1.07,3.92-1.07,1.06,0,2.04.14,2.95.43.91.29,1.76.72,2.56,1.31l-1.6,1.94c-.68-.43-1.34-.76-2-.98-.66-.22-1.29-.33-1.92-.33-.9,0-1.58.15-2.03.46s-.68.77-.68,1.39c0,.41.16.7.47.88s.72.29,1.24.34,1.06.1,1.65.14c.56.04,1.13.1,1.71.19.58.09,1.11.27,1.59.53.49.26.88.65,1.17,1.16s.44,1.21.44,2.09c0,1.45-.47,2.53-1.41,3.25-.94.72-2.36,1.08-4.25,1.08Z"/>
        <path class="st1" d="M734.7,357.6v-2.39h6.09v2.39h-6.09ZM739.26,368.77c-1.11,0-1.92-.31-2.41-.92-.5-.62-.75-1.5-.75-2.65v-13.92h2.65v13.94c0,.32.07.57.2.75.13.18.32.27.57.27h1.28v2.52h-1.54Z"/>
        <path class="st1" d="M748.39,369.81l-5.39-14.61h2.71l4.15,11.73-1.47,2.88ZM752.25,355.21h2.71l-5.75,16.66c-.32.93-.79,1.57-1.39,1.93-.61.36-1.44.54-2.5.54h-.53v-2.55h.53c.49,0,.89-.1,1.18-.3.29-.2.54-.54.76-1.03l5-15.26Z"/>
        <path class="st1" d="M759.95,349.79v15.43c0,.32.07.57.21.75.14.18.34.27.61.27h1.25v2.52h-1.56c-1,0-1.77-.31-2.33-.94-.56-.62-.83-1.5-.83-2.64v-15.4h2.65Z"/>
        <path class="st1" d="M770.54,368.9c-1.88,0-3.34-.52-4.37-1.57-1.03-1.05-1.55-2.54-1.55-4.47v-1.52c0-2.01.5-3.57,1.49-4.67.99-1.1,2.39-1.65,4.2-1.65,1.7,0,3.02.62,3.95,1.87.93,1.25,1.4,3,1.4,5.25v.88h-9.11v-2.13h6.58c-.08-1.09-.36-1.95-.85-2.56-.49-.62-1.15-.92-1.97-.92-1,0-1.77.33-2.33.99s-.83,1.59-.83,2.8v1.72c0,1.12.3,1.98.89,2.58.59.6,1.43.9,2.5.9.54,0,1.07-.11,1.6-.33.53-.22,1-.52,1.42-.91l1.74,1.74c-.67.64-1.42,1.14-2.25,1.49-.83.35-1.67.53-2.51.53Z"/>
      </g>
    </g>
  </g>
</svg>