<svg width="420" height="408" viewBox="0 0 420 408" fill="none" xmlns="http://www.w3.org/2000/svg">
<g clip-path="url(#clip0_3_9)">
<path d="M235.066 13.1434C194.697 9.38501 156.86 16.5851 121.785 36.0079C69.0693 65.1985 35.7806 109.286 23.9894 168.582C18.0545 198.428 19.8363 228.236 29.5273 257.326C29.8349 258.249 30.3965 259.088 30.784 259.855C33.0793 260.522 34.4286 258.996 35.9735 258.153C40.3578 255.762 44.6353 253.168 49.076 250.889C53.4418 248.65 57.9711 247.67 63.0598 248.526C70.4696 249.772 72.097 247.775 70.5624 240.728C67.4345 226.364 65.7989 211.86 66.5683 197.129C66.7323 193.989 66.5922 190.833 66.5922 186.969C59.2671 192.46 52.1382 197.212 49.9651 206.609C44.0953 200.273 46.0496 192.66 55.9343 181.694C48.6952 180.488 42.4468 182.504 36.4571 186.012C35.4608 177.497 42.5026 172.363 58.0316 170.204C57.0187 163.73 51.7887 161.315 46.9585 158.531C52.7298 154.068 61.4822 156.986 69.3403 166.157C74.1495 158.053 81.0743 154.622 90.5302 156.914C86.5367 160.6 81.5907 163.27 79.9182 169.202C89.2279 168.331 98.3847 167.19 103.652 177.447C97.467 175.533 91.6186 176.074 85.3372 178.567C92.5126 182.702 98.8281 186.966 98.3194 197.334C93.1949 193.547 89.0618 189.719 83.2899 188.158C85.0519 194.07 87.1142 200.079 82.3308 206.135C80.6567 198.794 75.5828 193.617 71.6947 186.179C70.298 201.541 72.1838 215.101 75.7648 228.477C76.9682 232.972 78.3917 237.412 79.8492 241.833C80.7886 244.682 82.3916 246.18 85.8609 245.171C91.6524 243.487 97.7342 243.645 103.703 243.188C106.934 242.941 108.074 241.518 107.824 238.395C107.386 232.921 107.013 227.438 106.804 221.952C105.732 193.757 111.607 166.699 120.241 140.085C121.394 136.532 123.155 133.018 122.347 127.982C110.293 136.355 95.4685 139.63 88.2641 153.713C82.1208 143.111 90.4985 128.855 108.326 118.316C96.0486 116.756 83.8081 113.379 71.2535 118.897C74.3486 102.421 94.6676 95.3911 115.649 102.794C110.465 90.3953 112.325 87.4754 96.2832 73.0166C105.091 71.7408 112.174 73.9506 118.951 78.7516C125.724 83.5498 128.876 90.5053 131.705 99.0263C138.011 89.6103 145.166 83.2253 156.002 82.8361C161.759 82.6293 167.436 82.921 172.944 86.0726C161.848 89.8201 153.608 97.1401 145.94 105.78C154.757 104.093 163.387 104.222 171.624 107.744C179.874 111.272 185.901 117.055 188.865 126.067C177.371 120.447 165.233 120.169 152.024 120.593C160.155 124.322 166.309 129.285 170.321 136.448C174.335 143.613 176.225 151.179 173.357 160.882C167.588 149.164 158.585 142.102 148.049 134.23C153.145 147.951 154.187 160.041 143.671 170.552C144.594 155.904 135.077 144.899 131.815 131.073C122.902 143.056 115.364 203.626 120.703 221.762C121.886 222.336 122.577 221.488 123.257 220.803C139.622 204.316 158.445 190.742 176.252 175.962C179.071 173.623 181.296 174.62 184.02 175.63C186.988 176.73 187.386 178.843 187.34 181.552C187.24 187.506 187.309 193.462 187.88 199.631C192.617 194.166 197.81 189.029 198.639 181.422C199.214 176.144 201.89 173.055 206.434 170.319C222.555 160.609 238.437 150.494 254.272 140.32C258.71 137.469 262.185 137.636 266.337 140.977C289.831 159.876 313.478 178.585 337.085 197.342C340.853 200.336 344.685 203.251 349.281 205.482C342.319 197.939 335.358 190.396 327.921 182.338C335.63 177.846 343.27 174.832 351.138 172.341C352.314 171.968 353.373 172.786 354.366 173.411C374.412 186.038 393.857 199.493 411.291 215.62C414.59 218.672 418.34 221.59 419.973 226.179C417.574 227.715 415.452 226.577 413.408 226.341C409.498 225.89 408.135 226.806 408.745 231.24C410.832 246.434 409.231 260.955 398.341 272.927C390.391 281.667 380.25 286.877 369.063 290.324C344.831 297.789 320.439 296.747 295.961 291.896C268.172 286.389 241.232 277.547 213.739 270.876C187.273 264.454 160.437 260.266 133.201 260.521C95.2924 260.876 58.7644 268.166 24.5741 285.285C18.9823 288.084 18.8547 288.07 16.4475 282.257C-6.98302 225.673 -5.47073 169.461 22.333 115.172C53.8359 53.6611 104.549 15.2044 172.654 3.40675C251.223 -10.2037 318.458 13.1751 372.108 72.9666C394.022 97.389 407.815 126.212 416.082 157.78C417.491 163.16 418.247 168.711 419.369 174.518C416.863 174.01 417.067 172.476 416.797 171.309C405.666 123.342 379.028 85.5975 340.602 55.6029C313.281 34.2761 282.594 20.5549 248.399 14.7827C244.138 14.0635 239.815 13.7106 235.066 13.1434ZM186.473 225.995C184.21 227.87 179.732 229.107 182.225 232.992C184.753 236.93 187.726 233.414 190.351 232.005C190.498 231.927 190.63 231.822 190.77 231.732C213.475 217.159 236.203 202.621 258.859 187.971C261.675 186.15 263.865 185.686 266.948 187.712C287.131 200.969 307.512 213.924 327.345 227.714C330.254 229.737 331.424 232.014 331.369 235.571C331.186 247.396 331.312 259.226 331.331 271.055C331.334 273.42 331.945 275.558 334.738 275.682C337.39 275.8 338.022 273.545 338.184 271.568C338.511 267.595 338.581 263.595 338.609 259.605C338.666 251.49 338.626 243.374 338.626 235.577C341.482 234.251 344.875 235.543 345.558 232.164C346.004 229.96 343.936 229.106 342.429 228.116C317.65 211.84 292.835 195.618 268.118 179.248C264.789 177.044 262.308 176.83 258.772 179.152C234.97 194.784 210.996 210.155 186.473 225.995ZM122.469 238.929C123.655 244.591 127.597 243.793 132.14 243.011C131.544 238.408 132.196 234.045 132.664 229.664C132.829 228.118 132.651 226.737 130.558 226.445C123.373 225.442 120.331 228.632 121.844 235.702C122.017 236.508 122.172 237.318 122.469 238.929ZM276.855 223.181C276.211 220.528 278.507 216.836 274.664 215.347C268.041 212.779 264.183 215.624 264.346 222.545C264.404 224.974 264.407 227.717 267.662 227.425C270.9 227.135 275.68 230.219 276.855 223.181ZM257.696 215.686C254.99 214.543 252.175 215.147 249.398 215.17C247.109 215.19 246.006 216.488 246.249 218.636C246.561 221.391 244.656 224.955 248.08 226.69C254.123 229.752 259.045 226.421 258.806 219.693C258.766 218.56 258.461 217.436 257.696 215.686ZM258.739 242.045C258.757 240.219 258.756 238.392 258.797 236.566C258.854 234.008 257.437 232.732 255.087 233.075C252.094 233.512 247.794 231.087 246.489 235.516C245.68 238.259 244.582 242.776 247.703 244.137C250.891 245.527 255.372 246.61 258.739 242.045ZM265.42 233.673C263.533 236.389 264.31 239.464 264.562 242.329C264.865 245.779 267.932 244.943 270.047 244.841C272.42 244.727 275.609 246.3 276.728 242.486C278.754 235.588 276.698 232.842 269.636 233.023C268.482 233.052 267.331 233.201 265.42 233.673Z" fill="#4B5563"/>
<path d="M57.4651 304.175C90.1495 301.69 120.502 309.136 149.428 322.566C172.525 333.29 194.937 345.487 218.017 356.25C242.52 367.677 268.234 374.997 295.595 374.637C309.169 374.459 322.405 372.075 335.062 366.94C335.914 366.595 336.77 365.753 338.721 367.213C296.102 397.633 249.069 411.188 197.399 407.958C114.983 402.806 55.8754 352.722 31.3741 309.496C39.6443 306.025 48.3914 305.423 57.4651 304.175Z" fill="#22C55E"/>
<path d="M285.411 363.903C255.621 360.441 229.28 348.444 203.379 335.258C179.481 323.09 155.807 310.458 130.059 302.413C97.1164 292.12 64.0767 290.232 30.8505 301.018C28.3644 301.825 26.1145 302.507 24.5299 299.35C23.2508 296.801 23.1843 295.201 26.1462 293.849C43.2278 286.051 61.1086 280.948 79.5624 277.74C93.043 275.396 106.665 274.098 120.315 274.166C142.686 274.278 164.768 277.179 186.628 282.085C213.452 288.106 239.547 296.834 266.299 303.089C286.62 307.84 307.14 311.229 328.089 310.658C351.848 310.011 374.348 304.863 393.945 290.548C398.207 287.436 402.067 283.774 406.13 280.351C407.704 281.847 406.416 282.981 406.016 284.057C398.514 304.253 383.422 316.602 363.906 324.041C341.605 332.542 318.525 333.73 295.025 330.747C281.79 329.068 268.82 326.295 255.525 322.309C278.466 335.943 335.895 351.239 380.957 324.907C381.101 325.183 381.441 325.591 381.358 325.715C365.674 349.07 343.752 361.765 315.768 364.299C305.764 365.205 295.817 364.986 285.411 363.903Z" fill="#D1FAE5"/>
<path d="M210.741 112.232C208.69 109.224 206.828 106.52 204.758 103.515C205.681 103.346 206.307 103.053 206.484 103.224C213.623 110.147 221.362 116.492 227.262 124.618C227.554 125.02 227.813 125.449 228.06 125.881C228.982 127.494 230.079 129.159 228.055 130.719C225.879 132.397 224.68 130.598 223.594 129.194C219.327 123.678 215.145 118.095 210.741 112.232Z" fill="black"/>
<path d="M289.956 124.982C295.055 115.901 303.074 109.879 309.642 102.487C309.081 106.733 306.425 109.902 304.563 113.421C301.767 118.706 298.348 123.622 294.475 128.172C293.368 129.473 292.606 132.254 289.922 130.769C286.977 129.139 288.866 127.151 289.956 124.982Z" fill="black"/>
<path d="M262.68 101.492C263.375 107.753 263.382 113.533 262.263 119.29C261.947 120.912 261.415 122.217 259.458 122.034C257.787 121.879 257.208 120.558 257.225 119.204C257.272 115.566 257.388 111.917 257.726 108.296C258.352 101.593 258.51 94.8198 260.309 87.4262C263.032 92.2104 261.819 96.7932 262.68 101.492Z" fill="black"/>
<path d="M198.504 143.413C201.17 144.812 204.224 145.075 205.819 149.373C198.263 146.323 191.729 143.694 185.747 139.763C190.486 139.025 194.151 141.72 198.504 143.413Z" fill="black"/>
<path d="M327.626 142.999C322.727 144.332 318.619 147.025 313.59 146.842C317.772 142.303 323.473 141.469 328.931 140.201C330.043 142.223 328.634 142.323 327.626 142.999Z" fill="black"/>
</g>
<defs>
<clipPath id="clip0_3_9">
<rect width="420" height="408" fill="white"/>
</clipPath>
</defs>
</svg>
